<svg 
 xmlns="http://www.w3.org/2000/svg"
 xmlns:xlink="http://www.w3.org/1999/xlink"
 width="14px" height="12px">
<path fill-rule="evenodd"  fill="rgb(255, 255, 255)"
 d="M12.885,7.068 C12.796,7.285 12.651,7.465 12.478,7.616 L8.521,11.572 C7.957,12.136 7.043,12.136 6.479,11.572 C5.914,11.008 5.914,10.094 6.479,9.530 L8.008,8.000 L1.500,8.000 C0.672,8.000 0.000,7.328 0.000,6.500 C0.000,5.672 0.672,5.000 1.500,5.000 L8.078,5.000 L6.479,3.401 C5.914,2.836 5.914,1.921 6.479,1.357 C7.043,0.793 7.957,0.793 8.521,1.357 L12.608,5.443 C13.048,5.884 13.133,6.534 12.885,7.068 Z"/>
</svg>